:SAMPLES-PER-SECOND 30
:FULLY-SPECIFIED
:DEGREES
363
root  43.943 38.0679 -3.13411 172.598 -34.2008 -176.317
RightUpLeg  -14.1683 -3.40484 4.70205
RightLeg  9.03329 0.730876 2.42642
RightFoot  8.22438 0.687667 -3.64281
RightToes  5.23868e-010 0 -3.6325e-017
Spine  4.69984 -2.61656 8.35722
Spine1  13.2103 -2.68793 0.428974
HEad  -22.2296 7.64783 5.14532
LeftShoulder1  -0.245542 4.11578 -34.01
LeftArm  -6.00722 15.9164 -41.7974
LeftForeArm  33.3076 -6.36899 -7.75436
LeftHand  -0.0210858 4.65887 -0.545671
RightShoulder  -0.808597 -5.83967 27.9961
RightArm  10.5739 -1.13654 40.4578
RightForeArm  -1.14156 15.8802 4.9278
RightHand  -0.63798 3.18109 -8.8684
LeftUpLeg  17.0312 0.579039 -2.72796
LeftLeg  17.8882 -9.91514 -3.16683
LeftFoot  -16.1164 0.440493 8.23292
LeftToes  -4.9204e-010 1.02043e-011 -1.81609e-011
364
root  43.2647 38.1701 -4.00204 172.722 -34.4881 -175.188
RightUpLeg  -13.9082 -3.64953 5.35488
RightLeg  10.6024 0.854131 2.61005
RightFoot  6.12369 0.574732 -3.47469
RightToes  5.23868e-010 0 -3.6325e-017
Spine  4.09027 -2.15961 10.7144
Spine1  13.0772 -1.8165 -0.0232723
HEad  -22.4612 9.90461 3.70978
LeftShoulder1  -0.204089 4.02021 -33.4017
LeftArm  -7.54366 18.0474 -43.6431
LeftForeArm  32.6156 -4.50732 -6.85595
LeftHand  -0.0292293 5.24713 -0.719212
RightShoulder  -0.855532 -5.94533 28.4451
RightArm  10.7466 -0.435601 41.9524
RightForeArm  1.05309 13.4014 5.3688
RightHand  -0.566055 2.4999 -8.51984
LeftUpLeg  14.5665 1.71697 -0.601964
LeftLeg  24.114 -12.4588 -5.76535
LeftFoot  -13.0963 0.157731 4.74139
LeftToes  -4.9204e-010 1.02043e-011 -1.81609e-011
365
root  42.6905 38.2725 -4.82085 173.045 -36.4492 -174.655
RightUpLeg  -13.5895 -4.25347 5.20411
RightLeg  11.9727 -0.296695 2.56321
RightFoot  4.09569 0.539715 -3.76324
RightToes  5.23868e-010 0 -3.6325e-017
Spine  3.87053 -2.17749 11.1266
Spine1  12.6492 -1.90037 1.10037
HEad  -22.7215 11.1436 2.39086
LeftShoulder1  -0.159759 3.91167 -32.9792
LeftArm  -7.31484 19.3864 -43.9229
LeftForeArm  33.2889 -4.17922 -6.94772
LeftHand  -0.0408335 5.80832 -2.13274
RightShoulder  -0.820682 -5.86801 28.1045
RightArm  10.4175 -0.548899 43.8965
RightForeArm  2.32568 12.2027 5.56275
RightHand  -0.496347 2.09574 -7.88503
LeftUpLeg  10.3433 2.73059 1.69586
LeftLeg  32.8455 -15.638 -10.335
LeftFoot  -7.43472 0.0580857 -0.143364
LeftToes  -4.9204e-010 1.02043e-011 -1.81609e-011
366
root  42.1661 38.2566 -5.55573 172.694 -39.1784 -173.511
RightUpLeg  -13.3087 -5.34178 5.2028
RightLeg  13.7616 -2.01545 2.66837
RightFoot  1.69319 0.404288 -3.43699
RightToes  5.23868e-010 0 -3.6325e-017
Spine  4.19098 -2.50939 12.6224
Spine1  12.0979 -1.96821 1.43748
HEad  -23.42 12.1396 1.41846
LeftShoulder1  -0.0998579 3.76279 -32.4506
LeftArm  -6.77474 19.7933 -43.2403
LeftForeArm  35.5603 -5.27978 -7.26865
LeftHand  -0.0251453 5.15975 -4.03246
RightShoulder  -0.827831 -5.88417 28.1712
RightArm  10.1221 -1.33846 45.5592
RightForeArm  1.71105 12.8406 5.40566
RightHand  -0.533119 2.32544 -8.20824
LeftUpLeg  4.89843 1.99327 3.95451
LeftLeg  42.8476 -16.2106 -15.1158
LeftFoot  -1.00727 0.704231 -7.34348
LeftToes  -4.9204e-010 1.02043e-011 -1.81609e-011
367
root  41.6363 38.1866 -6.23752 171.484 -41.062 -171.946
RightUpLeg  -12.4764 -5.98815 5.81544
RightLeg  15.4962 -3.48757 2.46584
RightFoot  -0.649976 0.283906 -3.06641
RightToes  5.23868e-010 0 -3.6325e-017
Spine  4.79084 -2.47085 15.2689
Spine1  12.169 -1.3431 0.940691
HEad  -24.4117 12.635 0.0788902
LeftShoulder1  -0.208023 4.03935 -32.7176
LeftArm  -5.53248 18.3047 -41.7338
LeftForeArm  35.7627 -6.6221 -7.86502
LeftHand  -0.00844007 4.71591 -3.51053
RightShoulder  -0.838832 -5.89496 28.4774
RightArm  11.1819 -1.46152 46.332
RightForeArm  -0.26723 14.3825 5.38211
RightHand  -0.588727 2.85783 -8.50061
LeftUpLeg  -0.0118849 1.44077 6.0726
LeftLeg  51.0493 -13.64 -16.9791
LeftFoot  5.34372 2.02581 -14.2157
LeftToes  -4.9204e-010 1.02043e-011 -1.81609e-011
368
root  41.1122 38.1599 -6.87652 170.267 -42.5906 -171.082
RightUpLeg  -10.9978 -6.73843 5.8815
RightLeg  16.8218 -4.4051 2.30961
RightFoot  -2.83929 0.169225 -2.5492
RightToes  5.23868e-010 0 -3.6325e-017
Spine  5.81291 -2.45171 17.3241
Spine1  12.0565 -0.600687 -0.113991
HEad  -24.2066 12.8305 -1.61266
LeftShoulder1  -0.23556 4.10853 -32.8229
LeftArm  -4.98876 17.3502 -40.9811
LeftForeArm  33.4497 -9.3558 -7.54682
LeftHand  -0.00926464 4.68281 -3.55386
RightShoulder  -0.841732 -5.89466 28.6047
RightArm  13.7982 -0.0127415 47.2076
RightForeArm  -0.66295 14.7329 5.82356
RightHand  -0.566736 2.69843 -8.34136
LeftUpLeg  -4.00706 1.66012 7.46248
LeftLeg  56.9421 -10.358 -16.1419
LeftFoot  7.72392 2.31398 -13.9613
LeftToes  -4.9204e-010 1.02043e-011 -1.81609e-011
369
root  40.5363 38.3088 -7.55478 170.183 -44.2033 -171.731
RightUpLeg  -8.90483 -7.70785 4.78341
RightLeg  16.9315 -4.90706 2.26563
RightFoot  -4.25564 0.124011 -2.46378
RightToes  5.23868e-010 0 -3.6325e-017
Spine  6.53583 -2.31676 17.3367
Spine1  11.3666 -0.201117 -0.74191
HEad  -23.7258 14.7342 -2.37199
LeftShoulder1  -0.193314 4.00017 -32.8052
LeftArm  -3.27798 17.018 -40.7621
LeftForeArm  27.398 -12.8941 -6.71165
LeftHand  0.000592047 3.90133 -1.69525
RightShoulder  -0.792338 -5.7678 28.3681
RightArm  17.155 1.84362 47.9562
RightForeArm  -0.593394 14.8027 6.40491
RightHand  -0.608603 2.56826 -9.07571
LeftUpLeg  -7.73991 1.9196 7.3505
LeftLeg  60.1384 -7.24297 -12.9045
LeftFoot  5.34434 1.43907 -10.0358
LeftToes  -4.9204e-010 1.02043e-011 -1.81609e-011
370
root  39.9358 38.4743 -8.22673 170.903 -45.4389 -172.784
RightUpLeg  -7.17864 -8.16081 3.7182
RightLeg  16.6576 -5.16823 1.945
RightFoot  -5.29462 0.0725208 -2.0508
RightToes  5.23868e-010 0 -3.6325e-017
Spine  6.13688 -1.91167 16.9937
Spine1  11.4338 0.201556 -1.31285
HEad  -21.8415 16.2351 -4.28194
LeftShoulder1  -0.267437 4.19118 -32.7716
LeftArm  -0.123562 16.2926 -40.7924
LeftForeArm  20.2635 -17.0648 -5.50182
LeftHand  -0.0211021 3.66888 0.0609261
RightShoulder  -0.74169 -5.65514 27.8334
RightArm  19.4822 3.75401 48.9694
RightForeArm  0.889702 14.8638 6.70406
RightHand  -0.554169 2.49421 -8.36147
LeftUpLeg  -11.3356 2.12281 6.61278
LeftLeg  60.4764 -4.95669 -8.89663
LeftFoot  3.84319 0.890284 -6.84026
LeftToes  -4.9204e-010 1.02043e-011 -1.81609e-011
371
root  39.3157 38.6393 -8.8682 171.161 -47.0086 -173.924
RightUpLeg  -4.60395 -8.91203 2.36715
RightLeg  15.9418 -5.65403 1.73921
RightFoot  -6.24028 0.0293324 -1.60736
RightToes  5.23868e-010 0 -3.6325e-017
Spine  6.26555 -1.74239 16.8322
Spine1  11.3676 0.626108 -2.49827
HEad  -19.5557 17.1832 -5.65996
LeftShoulder1  -0.216886 4.07265 -31.9857
LeftArm  1.46223 15.528 -41.3373
LeftForeArm  17.2344 -21.1428 -4.41644
LeftHand  -0.0294852 2.04503 0.66707
RightShoulder  -0.774017 -5.74884 27.8461
RightArm  21.1299 4.98886 49.2223
RightForeArm  0.614413 15.864 6.513
RightHand  -0.534507 2.98068 -7.63036
LeftUpLeg  -13.7368 1.66198 5.60837
LeftLeg  58.3191 -4.26974 -6.92228
LeftFoot  1.8636 0.424369 -3.77227
LeftToes  -4.9204e-010 1.02043e-011 -1.81609e-011
372
root  38.6855 38.7844 -9.48638 172.002 -48.5804 -175.279
RightUpLeg  -2.4839 -9.53318 1.01786
RightLeg  15.2169 -6.37437 1.44341
RightFoot  -7.12251 -0.00361551 -1.21376
RightToes  5.23868e-010 0 -3.6325e-017
Spine  6.292 -1.46271 16.2995
Spine1  10.9209 0.971015 -3.35947
HEad  -17.7953 18.6734 -6.87136
LeftShoulder1  -0.181798 3.98423 -31.6893
LeftArm  0.400978 15.1092 -41.3299
LeftForeArm  18.9944 -25.9027 -4.46177
LeftHand  -0.0314149 1.75146 0.707593
RightShoulder  -0.804127 -5.83742 27.8397
RightArm  22.2673 5.26153 48.9099
RightForeArm  -2.28537 17.8456 5.95941
RightHand  -0.621507 3.61581 -8.26764
LeftUpLeg  -15.7448 1.29842 4.29318
LeftLeg  53.6854 -4.75264 -6.44162
LeftFoot  -0.908157 0.248206 -2.67553
LeftToes  -4.9204e-010 1.02043e-011 -1.81609e-011
